<svg id="Layer_1" data-name="Layer 1" xmlns="http://www.w3.org/2000/svg" viewBox="0 0 1000 1000"><defs><style>.cls-1{fill:#20366a;fill-rule:evenodd;}</style></defs><path class="cls-1" d="M500,405.89c72.57,0,131.42,57.42,131.42,128.23,0,40.64-19.39,76.87-49.63,100.36,59,30,97.94,32.54,110.62-.89,12.12-25.41-13.39-42.43-31.63-34a14.94,14.94,0,1,1-6.15-.67c16.15-16.57,64.74-4.66,56.69,40.79-13.57,59.47-97.39,38.29-136,16.47q-7.08-4.57-14.07-8.57A133.42,133.42,0,0,1,500,662.35c-72.57,0-131.42-57.42-131.42-128.23S427.43,405.89,500,405.89ZM321.6,686.65H684.48A16.52,16.52,0,0,1,701,703.12h0c0,9.06-7.46,17.42-16.47,16.47-121.35-12.81-242.32-13.22-362.88,0-9,1-16.47-7.41-16.47-16.47h0a16.52,16.52,0,0,1,16.47-16.47Zm401.68-83.71c-14.75-38.45-68.4-44.89-90.6-6,15.6-62.83,47.82-89.4,84-36.24-21.32-77.61,8.75-111.39,53.14-144.35-18.92,62.21-34,124.42-46.5,186.63ZM500,280.33c-19.54,13.68-25.86,32.52-12,58.45-30.55-20.51-53,9.07-39.1,44.67,9.66-27.24,42.09-39,43.07,2.45h-8.55V392a59.89,59.89,0,0,1,33.18,0V385.9H508c1-41.49,33.41-29.69,43.07-2.45,13.94-35.6-8.55-65.18-39.1-44.67,13.85-25.93,7.53-44.77-12-58.45ZM276.72,602.94c14.75-38.45,68.4-44.89,90.6-6-15.6-62.83-47.82-89.4-84-36.24,21.32-77.61-8.75-111.39-53.14-144.35,18.92,62.21,34,124.42,46.5,186.63Zm71.1-4.78a15,15,0,1,1-8.66-.88l-1.7-.89c-23.56-6.77-38.61,7.36-31.11,37.2,14.17,37.57,57.4,24.26,95.75,3.66,5.77,7.41,12.12,13.94,19.52,18.91-42.09,19.47-104.55,38.27-128.68-6.09-22.44-41.24,29.39-79.31,54.88-51.91Zm197.11,40.89C509,622,474.86,617.53,443.1,629.75c15.93,14.5,35.6,23.08,56.9,23.08a81.49,81.49,0,0,0,44.93-13.78ZM437,623.7c30.18-23.85,73.85-18.54,124.43,1.68,21.17-21.77,34.64-54.58,34.64-91.26,0-65.55-43-118.71-96-118.71S404,468.57,404,534.12c0,35.75,12.79,67.81,33,89.58Z"/></svg>